# Blender v3.2.1 OBJ File: ''
# www.blender.org
mtllib ring.mtl
o ring.001
v 0.100000 0.000000 0.100000
v 0.098393 0.017856 -0.100000
v 0.098393 0.017856 0.100000
v 0.093623 0.035137 -0.100000
v 0.093623 0.035137 0.100000
v 0.085845 0.051290 -0.100000
v 0.085845 0.051290 0.100000
v 0.075307 0.065794 -0.100000
v 0.075307 0.065794 0.100000
v 0.062349 0.078183 -0.100000
v 0.062349 0.078183 0.100000
v 0.047387 0.088060 -0.100000
v 0.047387 0.088060 0.100000
v 0.030902 0.095106 -0.100000
v 0.030902 0.095106 0.100000
v 0.013423 0.099095 -0.100000
v 0.013423 0.099095 0.100000
v -0.004486 0.099899 -0.100000
v -0.004486 0.099899 0.100000
v -0.022252 0.097493 -0.100000
v -0.022252 0.097493 0.100000
v -0.039303 0.091953 -0.100000
v -0.039303 0.091953 0.100000
v -0.055090 0.083457 -0.100000
v -0.055090 0.083457 0.100000
v -0.069106 0.072279 -0.100000
v -0.069106 0.072279 0.100000
v -0.080902 0.058779 -0.100000
v -0.080902 0.058779 0.100000
v -0.090097 0.043388 -0.100000
v -0.090097 0.043388 0.100000
v -0.096396 0.026604 -0.100000
v -0.096396 0.026604 0.100000
v -0.099597 0.008964 -0.100000
v -0.099597 0.008964 0.100000
v -0.099597 -0.008964 -0.100000
v -0.099597 -0.008964 0.100000
v -0.096396 -0.026604 -0.100000
v -0.096396 -0.026604 0.100000
v -0.090097 -0.043388 -0.100000
v -0.090097 -0.043388 0.100000
v -0.080902 -0.058779 -0.100000
v -0.080902 -0.058779 0.100000
v -0.069106 -0.072279 -0.100000
v -0.069106 -0.072279 0.100000
v -0.055090 -0.083457 -0.100000
v -0.055090 -0.083457 0.100000
v -0.039303 -0.091953 -0.100000
v -0.039303 -0.091953 0.100000
v -0.022252 -0.097493 -0.100000
v -0.022252 -0.097493 0.100000
v -0.004486 -0.099899 -0.100000
v -0.004486 -0.099899 0.100000
v 0.013423 -0.099095 -0.100000
v 0.013423 -0.099095 0.100000
v 0.030902 -0.095106 -0.100000
v 0.030902 -0.095106 0.100000
v 0.047387 -0.088060 -0.100000
v 0.047387 -0.088060 0.100000
v 0.062349 -0.078183 -0.100000
v 0.062349 -0.078183 0.100000
v 0.075307 -0.065794 -0.100000
v 0.075307 -0.065794 0.100000
v 0.085845 -0.051290 -0.100000
v 0.085845 -0.051290 0.100000
v 0.093623 -0.035137 -0.100000
v 0.093623 -0.035137 0.100000
v 0.098393 -0.017856 -0.100000
v 0.098393 -0.017856 0.100000
v 0.100000 0.000000 -0.100000
v 0.000000 0.000000 -0.100000
v 0.100000 -0.000000 0.100000
v 0.000000 0.000000 0.100000
vn 0.9960 0.0896 0.0000
vn 0.9640 0.2660 0.0000
vn 0.9010 0.4339 0.0000
vn 0.8090 0.5878 0.0000
vn 0.6911 0.7228 0.0000
vn 0.5509 0.8346 0.0000
vn 0.3930 0.9195 0.0000
vn 0.2225 0.9749 0.0000
vn 0.0449 0.9990 0.0000
vn -0.1342 0.9909 0.0000
vn -0.3090 0.9511 0.0000
vn -0.4739 0.8806 0.0000
vn -0.6235 0.7818 0.0000
vn -0.7531 0.6579 0.0000
vn -0.8584 0.5129 0.0000
vn -0.9362 0.3514 0.0000
vn -0.9839 0.1786 0.0000
vn -1.0000 0.0000 0.0000
vn -0.9839 -0.1786 0.0000
vn -0.9362 -0.3514 0.0000
vn -0.8584 -0.5129 0.0000
vn -0.7531 -0.6579 0.0000
vn -0.6235 -0.7818 0.0000
vn -0.4739 -0.8806 0.0000
vn -0.3090 -0.9511 0.0000
vn -0.1342 -0.9909 0.0000
vn 0.0449 -0.9990 0.0000
vn 0.2225 -0.9749 0.0000
vn 0.3930 -0.9195 0.0000
vn 0.5509 -0.8346 0.0000
vn 0.6911 -0.7228 0.0000
vn 0.8090 -0.5878 0.0000
vn 0.9010 -0.4339 0.0000
vn 0.9640 -0.2660 0.0000
vn 0.9960 -0.0896 0.0000
vn 0.0000 0.0000 -1.0000
vn 0.0000 0.0000 1.0000
usemtl Material
s off
f 1//1 2//1 3//1
f 3//2 2//2 4//2
f 3//2 4//2 5//2
f 5//3 4//3 6//3
f 5//3 6//3 7//3
f 7//4 6//4 8//4
f 7//4 8//4 9//4
f 9//5 8//5 10//5
f 9//5 10//5 11//5
f 11//6 10//6 12//6
f 11//6 12//6 13//6
f 13//7 12//7 14//7
f 13//7 14//7 15//7
f 15//8 14//8 16//8
f 15//8 16//8 17//8
f 17//9 16//9 18//9
f 17//9 18//9 19//9
f 19//10 18//10 20//10
f 19//10 20//10 21//10
f 21//11 20//11 22//11
f 21//11 22//11 23//11
f 23//12 22//12 24//12
f 23//12 24//12 25//12
f 25//13 24//13 26//13
f 25//13 26//13 27//13
f 27//14 26//14 28//14
f 27//14 28//14 29//14
f 29//15 28//15 30//15
f 29//15 30//15 31//15
f 31//16 30//16 32//16
f 31//16 32//16 33//16
f 33//17 32//17 34//17
f 33//17 34//17 35//17
f 35//18 34//18 36//18
f 35//18 36//18 37//18
f 37//19 36//19 38//19
f 37//19 38//19 39//19
f 39//20 38//20 40//20
f 39//20 40//20 41//20
f 41//21 40//21 42//21
f 41//21 42//21 43//21
f 43//22 42//22 44//22
f 43//22 44//22 45//22
f 45//23 44//23 46//23
f 45//23 46//23 47//23
f 47//24 46//24 48//24
f 47//24 48//24 49//24
f 49//25 48//25 50//25
f 49//25 50//25 51//25
f 51//26 50//26 52//26
f 51//26 52//26 53//26
f 53//27 52//27 54//27
f 53//27 54//27 55//27
f 55//28 54//28 56//28
f 55//28 56//28 57//28
f 57//29 56//29 58//29
f 57//29 58//29 59//29
f 59//30 58//30 60//30
f 59//30 60//30 61//30
f 61//31 60//31 62//31
f 61//31 62//31 63//31
f 63//32 62//32 64//32
f 63//32 64//32 65//32
f 65//33 64//33 66//33
f 65//33 66//33 67//33
f 67//34 66//34 68//34
f 67//34 68//34 69//34
f 69//35 68//35 70//35
f 69//35 70//35 1//35
f 1//1 70//1 2//1
f 70//36 68//36 71//36
f 70//36 71//36 2//36
f 8//36 6//36 71//36
f 71//36 6//36 4//36
f 71//36 4//36 2//36
f 14//36 12//36 71//36
f 71//36 12//36 10//36
f 71//36 10//36 8//36
f 20//36 18//36 71//36
f 71//36 18//36 16//36
f 71//36 16//36 14//36
f 26//36 24//36 71//36
f 71//36 24//36 22//36
f 71//36 22//36 20//36
f 32//36 30//36 71//36
f 71//36 30//36 28//36
f 71//36 28//36 26//36
f 38//36 36//36 71//36
f 71//36 36//36 34//36
f 71//36 34//36 32//36
f 44//36 42//36 71//36
f 71//36 42//36 40//36
f 71//36 40//36 38//36
f 50//36 48//36 71//36
f 71//36 48//36 46//36
f 71//36 46//36 44//36
f 56//36 54//36 71//36
f 71//36 54//36 52//36
f 71//36 52//36 50//36
f 62//36 60//36 71//36
f 71//36 60//36 58//36
f 71//36 58//36 56//36
f 68//36 66//36 71//36
f 71//36 66//36 64//36
f 71//36 64//36 62//36
f 72//37 3//37 73//37
f 72//37 73//37 69//37
f 63//37 65//37 73//37
f 73//37 65//37 67//37
f 73//37 67//37 69//37
f 57//37 59//37 73//37
f 73//37 59//37 61//37
f 73//37 61//37 63//37
f 51//37 53//37 73//37
f 73//37 53//37 55//37
f 73//37 55//37 57//37
f 45//37 47//37 73//37
f 73//37 47//37 49//37
f 73//37 49//37 51//37
f 39//37 41//37 73//37
f 73//37 41//37 43//37
f 73//37 43//37 45//37
f 33//37 35//37 73//37
f 73//37 35//37 37//37
f 73//37 37//37 39//37
f 27//37 29//37 73//37
f 73//37 29//37 31//37
f 73//37 31//37 33//37
f 21//37 23//37 73//37
f 73//37 23//37 25//37
f 73//37 25//37 27//37
f 15//37 17//37 73//37
f 73//37 17//37 19//37
f 73//37 19//37 21//37
f 9//37 11//37 73//37
f 73//37 11//37 13//37
f 73//37 13//37 15//37
f 3//37 5//37 73//37
f 73//37 5//37 7//37
f 73//37 7//37 9//37
